<mxfile host="app.diagrams.net" agent="Mozilla/5.0 (Windows NT 10.0; Win64; x64) AppleWebKit/537.36 (KHTML, like Gecko) Chrome/133.0.0.0 Safari/537.36" version="24.7.17">
  <diagram id="6a731a19-8d31-9384-78a2-239565b7b9f0" name="Page-1">
    <mxGraphModel dx="1665" dy="915" grid="1" gridSize="10" guides="1" tooltips="1" connect="1" arrows="1" fold="1" page="1" pageScale="1" pageWidth="1920" pageHeight="1200" background="none" math="0" shadow="0">
      <root>
        <mxCell id="0" />
        <mxCell id="1" parent="0" />
        <mxCell id="PwvHuBpC1ZCdnmNJ7vxb-347" value="" style="group" vertex="1" connectable="0" parent="1">
          <mxGeometry x="290" y="290" width="380" height="250" as="geometry" />
        </mxCell>
        <mxCell id="PwvHuBpC1ZCdnmNJ7vxb-208" value="" style="html=1;shadow=0;dashed=0;shape=mxgraph.bootstrap.rrect;rSize=5;strokeColor=#6c767d;html=1;whiteSpace=wrap;fillColor=#ffffff;fontColor=#1CA5B8;verticalAlign=bottom;align=left;spacing=20;spacingBottom=0;fontSize=14;container=0;" vertex="1" parent="PwvHuBpC1ZCdnmNJ7vxb-347">
          <mxGeometry width="380" height="250" as="geometry" />
        </mxCell>
        <mxCell id="PwvHuBpC1ZCdnmNJ7vxb-209" value="&lt;font color=&quot;#000000&quot;&gt;Pre-processing and QC&lt;/font&gt;" style="html=1;shadow=0;dashed=0;shape=mxgraph.bootstrap.topButton;rSize=5;perimeter=none;whiteSpace=wrap;fillColor=#F7F7F7;strokeColor=#949ca1;fontColor=#6C767D;resizeWidth=1;fontSize=18;align=center;spacing=20;container=0;" vertex="1" parent="PwvHuBpC1ZCdnmNJ7vxb-347">
          <mxGeometry width="380" height="50" as="geometry" />
        </mxCell>
        <mxCell id="PwvHuBpC1ZCdnmNJ7vxb-295" value="" style="html=1;shadow=0;dashed=0;shape=mxgraph.bootstrap.rrect;rSize=5;strokeColor=#6c767d;html=1;whiteSpace=wrap;fillColor=#ffffff;fontColor=#1CA5B8;verticalAlign=bottom;align=left;spacing=5;spacingBottom=0;fontSize=14;" vertex="1" parent="1">
          <mxGeometry x="40" y="572.64" width="970" height="250" as="geometry" />
        </mxCell>
        <mxCell id="PwvHuBpC1ZCdnmNJ7vxb-296" value="&lt;font color=&quot;#000000&quot;&gt;Alignment, primer trimming, and consensus generation&lt;/font&gt;" style="html=1;shadow=0;dashed=0;shape=mxgraph.bootstrap.topButton;rSize=5;perimeter=none;whiteSpace=wrap;fillColor=#F7F7F7;strokeColor=#949ca1;fontColor=#6C767D;resizeWidth=1;fontSize=18;align=center;spacing=20;" vertex="1" parent="PwvHuBpC1ZCdnmNJ7vxb-295">
          <mxGeometry width="970.0000000000001" height="50" relative="1" as="geometry" />
        </mxCell>
        <mxCell id="PwvHuBpC1ZCdnmNJ7vxb-290" value="" style="edgeStyle=orthogonalEdgeStyle;rounded=0;orthogonalLoop=1;jettySize=auto;html=1;" edge="1" parent="PwvHuBpC1ZCdnmNJ7vxb-295" source="PwvHuBpC1ZCdnmNJ7vxb-283" target="PwvHuBpC1ZCdnmNJ7vxb-288">
          <mxGeometry relative="1" as="geometry" />
        </mxCell>
        <mxCell id="PwvHuBpC1ZCdnmNJ7vxb-283" value="samtools ampliconclip" style="html=1;shadow=0;dashed=0;shape=mxgraph.bootstrap.rrect;rSize=5;strokeColor=none;strokeWidth=1;fillColor=#1CA5B8;fontColor=#FFFFFF;whiteSpace=wrap;align=center;verticalAlign=middle;spacingLeft=0;fontStyle=1;fontSize=14;spacing=5;" vertex="1" parent="PwvHuBpC1ZCdnmNJ7vxb-295">
          <mxGeometry x="420" y="125" width="120" height="34.72" as="geometry" />
        </mxCell>
        <mxCell id="PwvHuBpC1ZCdnmNJ7vxb-325" value="" style="edgeStyle=orthogonalEdgeStyle;rounded=0;orthogonalLoop=1;jettySize=auto;html=1;exitX=1;exitY=0.25;exitDx=0;exitDy=0;exitPerimeter=0;" edge="1" parent="PwvHuBpC1ZCdnmNJ7vxb-295" source="PwvHuBpC1ZCdnmNJ7vxb-288" target="PwvHuBpC1ZCdnmNJ7vxb-292">
          <mxGeometry relative="1" as="geometry">
            <Array as="points">
              <mxPoint x="680" y="127" />
              <mxPoint x="680" y="97" />
            </Array>
          </mxGeometry>
        </mxCell>
        <mxCell id="PwvHuBpC1ZCdnmNJ7vxb-288" value="trimmed sorted BAM" style="strokeWidth=2;html=1;shape=mxgraph.flowchart.document2;whiteSpace=wrap;size=0.25;fillColor=#b0e3e6;strokeColor=#0e8088;spacing=2;" vertex="1" parent="PwvHuBpC1ZCdnmNJ7vxb-295">
          <mxGeometry x="570" y="112.36000000000001" width="100" height="60" as="geometry" />
        </mxCell>
        <mxCell id="PwvHuBpC1ZCdnmNJ7vxb-294" value="" style="edgeStyle=orthogonalEdgeStyle;rounded=0;orthogonalLoop=1;jettySize=auto;html=1;" edge="1" parent="PwvHuBpC1ZCdnmNJ7vxb-295" source="PwvHuBpC1ZCdnmNJ7vxb-292" target="PwvHuBpC1ZCdnmNJ7vxb-293">
          <mxGeometry relative="1" as="geometry" />
        </mxCell>
        <mxCell id="PwvHuBpC1ZCdnmNJ7vxb-292" value="ivar consensus" style="html=1;shadow=0;dashed=0;shape=mxgraph.bootstrap.rrect;rSize=5;strokeColor=none;strokeWidth=1;fillColor=#1CA5B8;fontColor=#FFFFFF;whiteSpace=wrap;align=center;verticalAlign=middle;spacingLeft=0;fontStyle=1;fontSize=14;spacing=5;" vertex="1" parent="PwvHuBpC1ZCdnmNJ7vxb-295">
          <mxGeometry x="700.0000000000001" y="80" width="120" height="34.72" as="geometry" />
        </mxCell>
        <mxCell id="PwvHuBpC1ZCdnmNJ7vxb-293" value="concatenated consensus fasta" style="strokeWidth=2;html=1;shape=mxgraph.flowchart.document2;whiteSpace=wrap;size=0.25;fillColor=#b0e3e6;strokeColor=#0e8088;" vertex="1" parent="PwvHuBpC1ZCdnmNJ7vxb-295">
          <mxGeometry x="850.0000000000001" y="67.36000000000001" width="100" height="60" as="geometry" />
        </mxCell>
        <mxCell id="PwvHuBpC1ZCdnmNJ7vxb-349" value="" style="edgeStyle=orthogonalEdgeStyle;rounded=0;orthogonalLoop=1;jettySize=auto;html=1;" edge="1" parent="PwvHuBpC1ZCdnmNJ7vxb-295" source="PwvHuBpC1ZCdnmNJ7vxb-313" target="PwvHuBpC1ZCdnmNJ7vxb-283">
          <mxGeometry relative="1" as="geometry" />
        </mxCell>
        <mxCell id="PwvHuBpC1ZCdnmNJ7vxb-313" value="BAM" style="strokeWidth=2;html=1;shape=mxgraph.flowchart.document2;whiteSpace=wrap;size=0.25;fillColor=#b0e3e6;strokeColor=#0e8088;" vertex="1" parent="PwvHuBpC1ZCdnmNJ7vxb-295">
          <mxGeometry x="280" y="112.36000000000001" width="100" height="60" as="geometry" />
        </mxCell>
        <mxCell id="PwvHuBpC1ZCdnmNJ7vxb-278" value="bwa" style="html=1;shadow=0;dashed=0;shape=mxgraph.bootstrap.rrect;rSize=5;strokeColor=none;strokeWidth=1;fillColor=#1CA5B8;fontColor=#FFFFFF;whiteSpace=wrap;align=center;verticalAlign=middle;spacingLeft=0;fontStyle=1;fontSize=14;spacing=5;" vertex="1" parent="PwvHuBpC1ZCdnmNJ7vxb-295">
          <mxGeometry x="180" y="127.36000000000001" width="50" height="30" as="geometry" />
        </mxCell>
        <mxCell id="PwvHuBpC1ZCdnmNJ7vxb-315" value="" style="edgeStyle=orthogonalEdgeStyle;rounded=0;orthogonalLoop=1;jettySize=auto;html=1;" edge="1" parent="PwvHuBpC1ZCdnmNJ7vxb-295" source="PwvHuBpC1ZCdnmNJ7vxb-278" target="PwvHuBpC1ZCdnmNJ7vxb-313">
          <mxGeometry relative="1" as="geometry" />
        </mxCell>
        <mxCell id="PwvHuBpC1ZCdnmNJ7vxb-339" value="" style="edgeStyle=orthogonalEdgeStyle;rounded=0;orthogonalLoop=1;jettySize=auto;html=1;" edge="1" parent="PwvHuBpC1ZCdnmNJ7vxb-295" source="PwvHuBpC1ZCdnmNJ7vxb-336" target="PwvHuBpC1ZCdnmNJ7vxb-337">
          <mxGeometry relative="1" as="geometry" />
        </mxCell>
        <mxCell id="PwvHuBpC1ZCdnmNJ7vxb-336" value="&lt;p style=&quot;line-height: 100%;&quot;&gt;samtools coverage&lt;/p&gt;" style="html=1;shadow=0;dashed=0;shape=mxgraph.bootstrap.rrect;rSize=5;strokeColor=none;strokeWidth=1;fillColor=#1CA5B8;fontColor=#FFFFFF;whiteSpace=wrap;align=center;verticalAlign=middle;spacingLeft=0;fontStyle=1;fontSize=14;spacing=5;" vertex="1" parent="PwvHuBpC1ZCdnmNJ7vxb-295">
          <mxGeometry x="700.0000000000001" y="162.64" width="120" height="34.72" as="geometry" />
        </mxCell>
        <mxCell id="PwvHuBpC1ZCdnmNJ7vxb-337" value="coverage stats" style="strokeWidth=2;html=1;shape=mxgraph.flowchart.document2;whiteSpace=wrap;size=0.25;fillColor=#b0e3e6;strokeColor=#0e8088;" vertex="1" parent="PwvHuBpC1ZCdnmNJ7vxb-295">
          <mxGeometry x="850.0000000000001" y="150" width="100" height="60" as="geometry" />
        </mxCell>
        <mxCell id="PwvHuBpC1ZCdnmNJ7vxb-338" style="edgeStyle=orthogonalEdgeStyle;rounded=0;orthogonalLoop=1;jettySize=auto;html=1;exitX=1;exitY=0.75;exitDx=0;exitDy=0;exitPerimeter=0;entryX=-0.001;entryY=0.501;entryDx=0;entryDy=0;entryPerimeter=0;" edge="1" parent="PwvHuBpC1ZCdnmNJ7vxb-295" source="PwvHuBpC1ZCdnmNJ7vxb-288" target="PwvHuBpC1ZCdnmNJ7vxb-336">
          <mxGeometry relative="1" as="geometry">
            <Array as="points">
              <mxPoint x="680" y="157" />
              <mxPoint x="680" y="180" />
            </Array>
          </mxGeometry>
        </mxCell>
        <mxCell id="PwvHuBpC1ZCdnmNJ7vxb-180" value="" style="html=1;shadow=0;dashed=0;shape=mxgraph.bootstrap.rrect;rSize=5;strokeColor=#6C767D;html=1;whiteSpace=wrap;fillColor=#ffffff;fontColor=#212529;verticalAlign=bottom;align=left;spacing=20;spacingBottom=0;fontSize=14;" vertex="1" parent="1">
          <mxGeometry x="40" y="40" width="760" height="240" as="geometry" />
        </mxCell>
        <mxCell id="PwvHuBpC1ZCdnmNJ7vxb-181" value="&lt;font color=&quot;#000000&quot;&gt;Workflow input&lt;/font&gt;" style="html=1;shadow=0;dashed=0;shape=mxgraph.bootstrap.topButton;rSize=5;perimeter=none;whiteSpace=wrap;fillColor=#F7F7F7;strokeColor=#6C767D;fontColor=#6C767D;resizeWidth=1;fontSize=18;align=center;spacing=20;" vertex="1" parent="PwvHuBpC1ZCdnmNJ7vxb-180">
          <mxGeometry width="760.0000000000001" height="50" relative="1" as="geometry" />
        </mxCell>
        <mxCell id="PwvHuBpC1ZCdnmNJ7vxb-250" value="" style="group" vertex="1" connectable="0" parent="PwvHuBpC1ZCdnmNJ7vxb-180">
          <mxGeometry x="470" y="60" width="230" height="160" as="geometry" />
        </mxCell>
        <mxCell id="PwvHuBpC1ZCdnmNJ7vxb-194" value="&lt;ul style=&quot;font-size: 14px;&quot;&gt;&lt;li&gt;&lt;font style=&quot;font-size: 14px;&quot; face=&quot;monospace&quot;&gt;name&lt;/font&gt;&lt;/li&gt;&lt;li&gt;&lt;font style=&quot;font-size: 14px;&quot; face=&quot;monospace&quot;&gt;bed file&amp;nbsp;&lt;/font&gt;&lt;/li&gt;&lt;li&gt;&lt;font style=&quot;font-size: 14px;&quot; face=&quot;monospace&quot;&gt;reference name&lt;/font&gt;&lt;/li&gt;&lt;li&gt;&lt;font style=&quot;font-size: 14px;&quot; face=&quot;monospace&quot;&gt;reference fasta file&lt;/font&gt;&lt;/li&gt;&lt;/ul&gt;" style="shadow=0;dashed=0;shape=mxgraph.bootstrap.rrect;rSize=5;strokeColor=#188C9C;html=1;whiteSpace=wrap;fillColor=#1CA5B8;fontColor=#ffffff;verticalAlign=bottom;align=left;spacing=0;spacingBottom=0;fontSize=16;fontFamily=monospace;container=0;" vertex="1" parent="PwvHuBpC1ZCdnmNJ7vxb-250">
          <mxGeometry width="210" height="140" as="geometry" />
        </mxCell>
        <mxCell id="PwvHuBpC1ZCdnmNJ7vxb-196" value="&lt;ul style=&quot;font-size: 14px;&quot;&gt;&lt;li&gt;&lt;font style=&quot;font-size: 14px;&quot; face=&quot;monospace&quot;&gt;name&lt;/font&gt;&lt;/li&gt;&lt;li&gt;&lt;font style=&quot;font-size: 14px;&quot; face=&quot;monospace&quot;&gt;bed file&amp;nbsp;&lt;/font&gt;&lt;/li&gt;&lt;li&gt;&lt;font style=&quot;font-size: 14px;&quot; face=&quot;monospace&quot;&gt;reference name&lt;/font&gt;&lt;/li&gt;&lt;li&gt;&lt;font style=&quot;font-size: 14px;&quot; face=&quot;monospace&quot;&gt;reference fasta file&lt;/font&gt;&lt;/li&gt;&lt;/ul&gt;" style="shadow=0;dashed=0;shape=mxgraph.bootstrap.rrect;rSize=5;strokeColor=#188C9C;html=1;whiteSpace=wrap;fillColor=#1CA5B8;fontColor=#ffffff;verticalAlign=bottom;align=left;spacing=0;spacingBottom=0;fontSize=16;fontFamily=monospace;container=0;" vertex="1" parent="PwvHuBpC1ZCdnmNJ7vxb-250">
          <mxGeometry x="10" y="10" width="210" height="140" as="geometry" />
        </mxCell>
        <mxCell id="PwvHuBpC1ZCdnmNJ7vxb-198" value="&lt;ul style=&quot;font-size: 14px;&quot;&gt;&lt;li&gt;&lt;font style=&quot;font-size: 14px;&quot; face=&quot;monospace&quot;&gt;name&lt;/font&gt;&lt;/li&gt;&lt;li&gt;&lt;font style=&quot;font-size: 14px;&quot; face=&quot;monospace&quot;&gt;bed file&amp;nbsp;&lt;/font&gt;&lt;/li&gt;&lt;li&gt;&lt;font style=&quot;font-size: 14px;&quot; face=&quot;monospace&quot;&gt;reference name&lt;/font&gt;&lt;/li&gt;&lt;li&gt;&lt;font style=&quot;font-size: 14px;&quot; face=&quot;monospace&quot;&gt;reference fasta file&lt;/font&gt;&lt;/li&gt;&lt;/ul&gt;" style="shadow=0;dashed=0;shape=mxgraph.bootstrap.rrect;rSize=5;strokeColor=#188C9C;html=1;whiteSpace=wrap;fillColor=#1CA5B8;fontColor=#ffffff;verticalAlign=bottom;align=left;spacing=0;spacingBottom=0;fontSize=16;fontFamily=monospace;container=0;" vertex="1" parent="PwvHuBpC1ZCdnmNJ7vxb-250">
          <mxGeometry x="20" y="20" width="210" height="140" as="geometry" />
        </mxCell>
        <mxCell id="PwvHuBpC1ZCdnmNJ7vxb-195" value="&lt;font face=&quot;monospace&quot; style=&quot;font-size: 16px;&quot;&gt;PrimerScheme&lt;/font&gt;" style="html=1;shadow=0;dashed=0;shape=mxgraph.bootstrap.topButton;rSize=5;perimeter=none;whiteSpace=wrap;fillColor=#1BA0B2;strokeColor=#188C9C;fontColor=#ffffff;resizeWidth=1;fontSize=18;align=left;spacing=20;container=0;" vertex="1" parent="PwvHuBpC1ZCdnmNJ7vxb-250">
          <mxGeometry width="210" height="50" as="geometry" />
        </mxCell>
        <mxCell id="PwvHuBpC1ZCdnmNJ7vxb-197" value="&lt;font face=&quot;monospace&quot; style=&quot;font-size: 16px;&quot;&gt;PrimerScheme&lt;/font&gt;" style="html=1;shadow=0;dashed=0;shape=mxgraph.bootstrap.topButton;rSize=5;perimeter=none;whiteSpace=wrap;fillColor=#1BA0B2;strokeColor=#188C9C;fontColor=#ffffff;resizeWidth=1;fontSize=18;align=left;spacing=20;container=0;" vertex="1" parent="PwvHuBpC1ZCdnmNJ7vxb-250">
          <mxGeometry x="10" y="10" width="210" height="50" as="geometry" />
        </mxCell>
        <mxCell id="PwvHuBpC1ZCdnmNJ7vxb-199" value="&lt;font face=&quot;monospace&quot; style=&quot;font-size: 16px;&quot;&gt;PrimerScheme&lt;/font&gt;" style="html=1;shadow=0;dashed=0;shape=mxgraph.bootstrap.topButton;rSize=5;perimeter=none;whiteSpace=wrap;fillColor=#1BA0B2;strokeColor=#188C9C;fontColor=#ffffff;resizeWidth=1;fontSize=18;align=left;spacing=20;container=0;" vertex="1" parent="PwvHuBpC1ZCdnmNJ7vxb-250">
          <mxGeometry x="20" y="20" width="210" height="50" as="geometry" />
        </mxCell>
        <mxCell id="PwvHuBpC1ZCdnmNJ7vxb-251" style="edgeStyle=orthogonalEdgeStyle;rounded=0;orthogonalLoop=1;jettySize=auto;html=1;" edge="1" parent="PwvHuBpC1ZCdnmNJ7vxb-180" source="PwvHuBpC1ZCdnmNJ7vxb-245" target="PwvHuBpC1ZCdnmNJ7vxb-196">
          <mxGeometry relative="1" as="geometry" />
        </mxCell>
        <mxCell id="PwvHuBpC1ZCdnmNJ7vxb-245" value="&lt;font size=&quot;1&quot; color=&quot;#333333&quot; style=&quot;&quot;&gt;&lt;b style=&quot;font-size: 14px;&quot;&gt;download primer scheme structs&lt;/b&gt;&lt;/font&gt;" style="html=1;shadow=0;dashed=0;shape=mxgraph.bootstrap.rrect;rSize=5;strokeWidth=1;whiteSpace=wrap;align=center;verticalAlign=bottom;spacingLeft=0;fontStyle=0;fontSize=16;spacing=2;fillColor=default;strokeColor=#188c9c;labelPosition=center;verticalLabelPosition=middle;fontFamily=Helvetica;" vertex="1" parent="PwvHuBpC1ZCdnmNJ7vxb-180">
          <mxGeometry x="200" y="85" width="210" height="110" as="geometry" />
        </mxCell>
        <mxCell id="PwvHuBpC1ZCdnmNJ7vxb-246" value="" style="group" vertex="1" connectable="0" parent="PwvHuBpC1ZCdnmNJ7vxb-180">
          <mxGeometry x="210" y="95" width="196.81" height="45.27999999999997" as="geometry" />
        </mxCell>
        <mxCell id="PwvHuBpC1ZCdnmNJ7vxb-248" value="&lt;font style=&quot;font-size: 14px;&quot;&gt;cdphe_h5_influenza&lt;/font&gt;" style="text;html=1;align=center;verticalAlign=middle;resizable=0;points=[];autosize=1;strokeColor=none;fillColor=none;" vertex="1" parent="PwvHuBpC1ZCdnmNJ7vxb-246">
          <mxGeometry x="46.81" y="7.639999999999986" width="150" height="30" as="geometry" />
        </mxCell>
        <mxCell id="PwvHuBpC1ZCdnmNJ7vxb-263" value="" style="image;sketch=0;aspect=fixed;html=1;points=[];align=center;fontSize=12;image=img/lib/mscae/Docker.svg;" vertex="1" parent="PwvHuBpC1ZCdnmNJ7vxb-180">
          <mxGeometry x="210" y="95" width="50" height="41" as="geometry" />
        </mxCell>
        <mxCell id="PwvHuBpC1ZCdnmNJ7vxb-158" value="" style="group" vertex="1" connectable="0" parent="PwvHuBpC1ZCdnmNJ7vxb-180">
          <mxGeometry x="30" y="95" width="120" height="80" as="geometry" />
        </mxCell>
        <mxCell id="PwvHuBpC1ZCdnmNJ7vxb-160" value="" style="strokeWidth=2;html=1;shape=mxgraph.flowchart.document2;whiteSpace=wrap;size=0.25;fillColor=#b0e3e6;strokeColor=#0e8088;" vertex="1" parent="PwvHuBpC1ZCdnmNJ7vxb-158">
          <mxGeometry x="10" y="10" width="100" height="60" as="geometry" />
        </mxCell>
        <mxCell id="PwvHuBpC1ZCdnmNJ7vxb-161" value="" style="strokeWidth=2;html=1;shape=mxgraph.flowchart.document2;whiteSpace=wrap;size=0.25;fillColor=#b0e3e6;strokeColor=#0e8088;" vertex="1" parent="PwvHuBpC1ZCdnmNJ7vxb-158">
          <mxGeometry x="20" y="20" width="100" height="60" as="geometry" />
        </mxCell>
        <mxCell id="PwvHuBpC1ZCdnmNJ7vxb-171" value="FASTQs" style="text;html=1;align=center;verticalAlign=middle;resizable=0;points=[];autosize=1;strokeColor=none;fillColor=none;" vertex="1" parent="PwvHuBpC1ZCdnmNJ7vxb-158">
          <mxGeometry x="35" y="30" width="70" height="30" as="geometry" />
        </mxCell>
        <mxCell id="PwvHuBpC1ZCdnmNJ7vxb-216" style="edgeStyle=orthogonalEdgeStyle;rounded=0;orthogonalLoop=1;jettySize=auto;html=1;entryX=0;entryY=0.5;entryDx=0;entryDy=0;entryPerimeter=0;exitX=0.52;exitY=0.867;exitDx=0;exitDy=0;exitPerimeter=0;" edge="1" parent="1" source="PwvHuBpC1ZCdnmNJ7vxb-161" target="PwvHuBpC1ZCdnmNJ7vxb-203">
          <mxGeometry relative="1" as="geometry">
            <Array as="points">
              <mxPoint x="142" y="380" />
              <mxPoint x="140" y="380" />
              <mxPoint x="140" y="435" />
            </Array>
          </mxGeometry>
        </mxCell>
        <mxCell id="PwvHuBpC1ZCdnmNJ7vxb-341" value="" style="group" vertex="1" connectable="0" parent="1">
          <mxGeometry x="1290" y="660" width="210" height="90" as="geometry" />
        </mxCell>
        <mxCell id="PwvHuBpC1ZCdnmNJ7vxb-332" value="&lt;font size=&quot;1&quot; color=&quot;#333333&quot; style=&quot;&quot;&gt;&lt;b style=&quot;font-size: 14px;&quot;&gt;calculate alignment metrics&lt;/b&gt;&lt;/font&gt;" style="html=1;shadow=0;dashed=0;shape=mxgraph.bootstrap.rrect;rSize=5;strokeWidth=1;whiteSpace=wrap;align=center;verticalAlign=bottom;spacingLeft=0;fontStyle=0;fontSize=16;spacing=2;fillColor=default;strokeColor=#188c9c;labelPosition=center;verticalLabelPosition=middle;fontFamily=Helvetica;" vertex="1" parent="PwvHuBpC1ZCdnmNJ7vxb-341">
          <mxGeometry width="210" height="90" as="geometry" />
        </mxCell>
        <mxCell id="PwvHuBpC1ZCdnmNJ7vxb-333" value="" style="group" vertex="1" connectable="0" parent="PwvHuBpC1ZCdnmNJ7vxb-341">
          <mxGeometry x="10" y="10" width="196.81" height="45.27999999999997" as="geometry" />
        </mxCell>
        <mxCell id="PwvHuBpC1ZCdnmNJ7vxb-334" value="&lt;font style=&quot;font-size: 14px;&quot;&gt;cdphe_h5_influenza&lt;/font&gt;" style="text;html=1;align=center;verticalAlign=middle;resizable=0;points=[];autosize=1;strokeColor=none;fillColor=none;" vertex="1" parent="PwvHuBpC1ZCdnmNJ7vxb-333">
          <mxGeometry x="46.81" y="7.639999999999986" width="150" height="30" as="geometry" />
        </mxCell>
        <mxCell id="PwvHuBpC1ZCdnmNJ7vxb-335" value="" style="image;sketch=0;aspect=fixed;html=1;points=[];align=center;fontSize=12;image=img/lib/mscae/Docker.svg;" vertex="1" parent="PwvHuBpC1ZCdnmNJ7vxb-341">
          <mxGeometry x="10" y="10" width="50" height="41" as="geometry" />
        </mxCell>
        <mxCell id="PwvHuBpC1ZCdnmNJ7vxb-343" style="edgeStyle=orthogonalEdgeStyle;rounded=0;orthogonalLoop=1;jettySize=auto;html=1;entryX=0.003;entryY=0.5;entryDx=0;entryDy=0;entryPerimeter=0;" edge="1" parent="1" source="PwvHuBpC1ZCdnmNJ7vxb-337" target="PwvHuBpC1ZCdnmNJ7vxb-332">
          <mxGeometry relative="1" as="geometry" />
        </mxCell>
        <mxCell id="PwvHuBpC1ZCdnmNJ7vxb-344" style="edgeStyle=orthogonalEdgeStyle;rounded=0;orthogonalLoop=1;jettySize=auto;html=1;entryX=0.003;entryY=0.5;entryDx=0;entryDy=0;entryPerimeter=0;" edge="1" parent="1" source="PwvHuBpC1ZCdnmNJ7vxb-293" target="PwvHuBpC1ZCdnmNJ7vxb-332">
          <mxGeometry relative="1" as="geometry" />
        </mxCell>
        <mxCell id="PwvHuBpC1ZCdnmNJ7vxb-345" value="" style="group" vertex="1" connectable="0" parent="1">
          <mxGeometry x="960" y="20" width="230" height="60" as="geometry" />
        </mxCell>
        <mxCell id="PwvHuBpC1ZCdnmNJ7vxb-232" value="" style="html=1;shadow=0;dashed=0;shape=mxgraph.bootstrap.rrect;rSize=5;strokeWidth=1;whiteSpace=wrap;align=center;verticalAlign=middle;spacingLeft=0;fontStyle=0;fontSize=16;spacing=5;fillColor=default;strokeColor=#188c9c;" vertex="1" parent="PwvHuBpC1ZCdnmNJ7vxb-345">
          <mxGeometry width="230" height="60" as="geometry" />
        </mxCell>
        <mxCell id="PwvHuBpC1ZCdnmNJ7vxb-228" value="" style="group" vertex="1" connectable="0" parent="PwvHuBpC1ZCdnmNJ7vxb-345">
          <mxGeometry x="23.190000000000055" y="7.360000000000014" width="206.81" height="45.27999999999997" as="geometry" />
        </mxCell>
        <mxCell id="PwvHuBpC1ZCdnmNJ7vxb-230" value="cdphe_wdl_version_capture" style="text;html=1;align=center;verticalAlign=middle;resizable=0;points=[];autosize=1;strokeColor=none;fillColor=none;" vertex="1" parent="PwvHuBpC1ZCdnmNJ7vxb-228">
          <mxGeometry x="36.81" y="7.639999999999986" width="170" height="30" as="geometry" />
        </mxCell>
        <mxCell id="PwvHuBpC1ZCdnmNJ7vxb-264" value="" style="image;sketch=0;aspect=fixed;html=1;points=[];align=center;fontSize=12;image=img/lib/mscae/Docker.svg;" vertex="1" parent="PwvHuBpC1ZCdnmNJ7vxb-228">
          <mxGeometry x="-13.190000000000055" y="2.1399999999999864" width="50" height="41" as="geometry" />
        </mxCell>
        <mxCell id="PwvHuBpC1ZCdnmNJ7vxb-346" style="edgeStyle=orthogonalEdgeStyle;rounded=0;orthogonalLoop=1;jettySize=auto;html=1;entryX=0;entryY=0.5;entryDx=0;entryDy=0;entryPerimeter=0;" edge="1" parent="1" source="PwvHuBpC1ZCdnmNJ7vxb-231" target="PwvHuBpC1ZCdnmNJ7vxb-332">
          <mxGeometry relative="1" as="geometry">
            <mxPoint x="1170" y="750" as="targetPoint" />
            <Array as="points">
              <mxPoint x="1180" y="435" />
              <mxPoint x="1180" y="705" />
              <mxPoint x="1290" y="705" />
            </Array>
          </mxGeometry>
        </mxCell>
        <mxCell id="PwvHuBpC1ZCdnmNJ7vxb-267" value="" style="group;spacingBottom=2;" vertex="1" connectable="0" parent="1">
          <mxGeometry x="810" y="390" width="210" height="90" as="geometry" />
        </mxCell>
        <mxCell id="PwvHuBpC1ZCdnmNJ7vxb-253" value="&lt;font size=&quot;1&quot; color=&quot;#333333&quot; style=&quot;&quot;&gt;&lt;b style=&quot;font-size: 14px;&quot;&gt;concatenate QC stats&lt;/b&gt;&lt;/font&gt;" style="html=1;shadow=0;dashed=0;shape=mxgraph.bootstrap.rrect;rSize=5;strokeWidth=1;whiteSpace=wrap;align=center;verticalAlign=bottom;spacingLeft=0;fontStyle=0;fontSize=16;spacing=0;fillColor=default;strokeColor=#188c9c;labelPosition=center;verticalLabelPosition=middle;fontFamily=Helvetica;container=0;spacingBottom=6;" vertex="1" parent="PwvHuBpC1ZCdnmNJ7vxb-267">
          <mxGeometry width="210" height="90" as="geometry" />
        </mxCell>
        <mxCell id="PwvHuBpC1ZCdnmNJ7vxb-256" value="&lt;font style=&quot;font-size: 14px;&quot;&gt;cdphe_h5_influenza&lt;/font&gt;" style="text;html=1;align=center;verticalAlign=middle;resizable=0;points=[];autosize=1;strokeColor=none;fillColor=none;container=0;" vertex="1" parent="PwvHuBpC1ZCdnmNJ7vxb-267">
          <mxGeometry x="56.809999999999945" y="17.639999999999986" width="150" height="30" as="geometry" />
        </mxCell>
        <mxCell id="PwvHuBpC1ZCdnmNJ7vxb-258" value="" style="image;sketch=0;aspect=fixed;html=1;points=[];align=center;fontSize=12;image=img/lib/mscae/Docker.svg;container=0;" vertex="1" parent="PwvHuBpC1ZCdnmNJ7vxb-267">
          <mxGeometry x="10" y="12.139999999999986" width="50" height="41" as="geometry" />
        </mxCell>
        <mxCell id="PwvHuBpC1ZCdnmNJ7vxb-231" value="QC summary" style="strokeWidth=2;html=1;shape=mxgraph.flowchart.document2;whiteSpace=wrap;size=0.25;fillColor=#b0e3e6;strokeColor=#0e8088;" vertex="1" parent="1">
          <mxGeometry x="1050" y="405" width="100" height="60" as="geometry" />
        </mxCell>
        <mxCell id="PwvHuBpC1ZCdnmNJ7vxb-277" style="edgeStyle=orthogonalEdgeStyle;rounded=0;orthogonalLoop=1;jettySize=auto;html=1;entryX=0.001;entryY=0.5;entryDx=0;entryDy=0;entryPerimeter=0;" edge="1" parent="1" source="PwvHuBpC1ZCdnmNJ7vxb-202" target="PwvHuBpC1ZCdnmNJ7vxb-253">
          <mxGeometry relative="1" as="geometry" />
        </mxCell>
        <mxCell id="PwvHuBpC1ZCdnmNJ7vxb-287" value="" style="edgeStyle=orthogonalEdgeStyle;rounded=0;orthogonalLoop=1;jettySize=auto;html=1;" edge="1" parent="1" source="PwvHuBpC1ZCdnmNJ7vxb-253" target="PwvHuBpC1ZCdnmNJ7vxb-231">
          <mxGeometry relative="1" as="geometry" />
        </mxCell>
        <mxCell id="PwvHuBpC1ZCdnmNJ7vxb-203" value="fastp" style="html=1;shadow=0;dashed=0;shape=mxgraph.bootstrap.rrect;rSize=5;strokeColor=none;strokeWidth=1;fillColor=#1CA5B8;fontColor=#FFFFFF;whiteSpace=wrap;align=center;verticalAlign=middle;spacingLeft=0;fontStyle=1;fontSize=14;spacing=5;container=0;" vertex="1" parent="1">
          <mxGeometry x="320" y="420" width="70" height="30" as="geometry" />
        </mxCell>
        <mxCell id="PwvHuBpC1ZCdnmNJ7vxb-202" value="fastqc" style="html=1;shadow=0;dashed=0;shape=mxgraph.bootstrap.rrect;rSize=5;strokeColor=none;strokeWidth=1;fillColor=#1CA5B8;fontColor=#FFFFFF;whiteSpace=wrap;align=center;verticalAlign=middle;spacingLeft=0;fontStyle=1;fontSize=14;spacing=5;container=0;" vertex="1" parent="1">
          <mxGeometry x="570" y="420" width="70" height="30" as="geometry" />
        </mxCell>
        <mxCell id="PwvHuBpC1ZCdnmNJ7vxb-275" style="edgeStyle=orthogonalEdgeStyle;rounded=0;orthogonalLoop=1;jettySize=auto;html=1;" edge="1" parent="1" target="PwvHuBpC1ZCdnmNJ7vxb-202">
          <mxGeometry relative="1" as="geometry">
            <mxPoint x="540" y="435" as="sourcePoint" />
            <Array as="points">
              <mxPoint x="540" y="435" />
              <mxPoint x="540" y="435" />
            </Array>
          </mxGeometry>
        </mxCell>
        <mxCell id="PwvHuBpC1ZCdnmNJ7vxb-327" style="edgeStyle=orthogonalEdgeStyle;rounded=0;orthogonalLoop=1;jettySize=auto;html=1;entryX=-0.002;entryY=0.583;entryDx=0;entryDy=0;entryPerimeter=0;" edge="1" parent="1" source="PwvHuBpC1ZCdnmNJ7vxb-203" target="PwvHuBpC1ZCdnmNJ7vxb-212">
          <mxGeometry relative="1" as="geometry" />
        </mxCell>
        <mxCell id="PwvHuBpC1ZCdnmNJ7vxb-221" style="edgeStyle=orthogonalEdgeStyle;rounded=0;orthogonalLoop=1;jettySize=auto;html=1;entryX=0.498;entryY=-0.005;entryDx=0;entryDy=0;entryPerimeter=0;startSize=0;exitX=0.6;exitY=0.804;exitDx=0;exitDy=0;exitPerimeter=0;jumpSize=0;" edge="1" parent="1" source="PwvHuBpC1ZCdnmNJ7vxb-161" target="PwvHuBpC1ZCdnmNJ7vxb-202">
          <mxGeometry relative="1" as="geometry">
            <mxPoint x="300" y="190" as="sourcePoint" />
            <Array as="points">
              <mxPoint x="150" y="380" />
              <mxPoint x="605" y="380" />
            </Array>
          </mxGeometry>
        </mxCell>
        <mxCell id="PwvHuBpC1ZCdnmNJ7vxb-212" value="" style="strokeWidth=2;html=1;shape=mxgraph.flowchart.document2;whiteSpace=wrap;size=0.25;fillColor=#b0e3e6;strokeColor=#0e8088;container=0;" vertex="1" parent="1">
          <mxGeometry x="430" y="400" width="100" height="60" as="geometry" />
        </mxCell>
        <mxCell id="PwvHuBpC1ZCdnmNJ7vxb-213" value="" style="strokeWidth=2;html=1;shape=mxgraph.flowchart.document2;whiteSpace=wrap;size=0.25;fillColor=#b0e3e6;strokeColor=#0e8088;container=0;" vertex="1" parent="1">
          <mxGeometry x="440" y="410" width="100" height="60" as="geometry" />
        </mxCell>
        <mxCell id="PwvHuBpC1ZCdnmNJ7vxb-214" value="cleaned FASTQs" style="text;html=1;align=center;verticalAlign=middle;resizable=0;points=[];autosize=1;strokeColor=none;fillColor=none;container=0;" vertex="1" parent="1">
          <mxGeometry x="435" y="420" width="110" height="30" as="geometry" />
        </mxCell>
        <mxCell id="PwvHuBpC1ZCdnmNJ7vxb-348" value="" style="group" vertex="1" connectable="0" parent="1">
          <mxGeometry x="60" y="850" width="210" height="90" as="geometry" />
        </mxCell>
        <mxCell id="PwvHuBpC1ZCdnmNJ7vxb-279" value="&lt;font size=&quot;1&quot; color=&quot;#333333&quot; style=&quot;&quot;&gt;&lt;b style=&quot;font-size: 14px;&quot;&gt;sort primer bed&lt;/b&gt;&lt;/font&gt;" style="html=1;shadow=0;dashed=0;shape=mxgraph.bootstrap.rrect;rSize=5;strokeWidth=1;whiteSpace=wrap;align=center;verticalAlign=bottom;spacingLeft=0;fontStyle=0;fontSize=16;spacing=2;fillColor=default;strokeColor=#188c9c;labelPosition=center;verticalLabelPosition=middle;fontFamily=Helvetica;" vertex="1" parent="PwvHuBpC1ZCdnmNJ7vxb-348">
          <mxGeometry width="210" height="90" as="geometry" />
        </mxCell>
        <mxCell id="PwvHuBpC1ZCdnmNJ7vxb-280" value="" style="group" vertex="1" connectable="0" parent="PwvHuBpC1ZCdnmNJ7vxb-348">
          <mxGeometry x="10" y="10" width="196.81" height="45.27999999999997" as="geometry" />
        </mxCell>
        <mxCell id="PwvHuBpC1ZCdnmNJ7vxb-281" value="&lt;font style=&quot;font-size: 14px;&quot;&gt;cdphe_h5_influenza&lt;/font&gt;" style="text;html=1;align=center;verticalAlign=middle;resizable=0;points=[];autosize=1;strokeColor=none;fillColor=none;" vertex="1" parent="PwvHuBpC1ZCdnmNJ7vxb-280">
          <mxGeometry x="46.81" y="7.639999999999986" width="150" height="30" as="geometry" />
        </mxCell>
        <mxCell id="PwvHuBpC1ZCdnmNJ7vxb-282" value="" style="image;sketch=0;aspect=fixed;html=1;points=[];align=center;fontSize=12;image=img/lib/mscae/Docker.svg;" vertex="1" parent="PwvHuBpC1ZCdnmNJ7vxb-348">
          <mxGeometry x="10" y="10" width="50" height="41" as="geometry" />
        </mxCell>
        <mxCell id="PwvHuBpC1ZCdnmNJ7vxb-284" value="sorted primer bed" style="strokeWidth=2;html=1;shape=mxgraph.flowchart.document2;whiteSpace=wrap;size=0.25;fillColor=#b0e3e6;strokeColor=#0e8088;" vertex="1" parent="1">
          <mxGeometry x="300" y="865" width="100" height="60" as="geometry" />
        </mxCell>
        <mxCell id="PwvHuBpC1ZCdnmNJ7vxb-285" value="" style="edgeStyle=orthogonalEdgeStyle;rounded=0;orthogonalLoop=1;jettySize=auto;html=1;" edge="1" parent="1" source="PwvHuBpC1ZCdnmNJ7vxb-279" target="PwvHuBpC1ZCdnmNJ7vxb-284">
          <mxGeometry relative="1" as="geometry" />
        </mxCell>
      </root>
    </mxGraphModel>
  </diagram>
</mxfile>
